<svg xmlns="http://www.w3.org/2000/svg" version="1.1" xmlns:xlink="http://www.w3.org/1999/xlink" xmlns:svgjs="http://svgjs.com/svgjs" width="1440" height="560" preserveAspectRatio="none" viewBox="0 0 1440 560"><g mask="url(&quot;#SvgjsMask1018&quot;)" fill="none"><rect width="1440" height="560" x="0" y="0" fill="rgba(163, 26, 203, 1)"></rect><path d="M536.6 377 a127.18 127.18 0 1 0 254.36 0 a127.18 127.18 0 1 0 -254.36 0z" fill="rgba(57, 181, 224, 1)" class="triangle-float3"></path><path d="M1208.8764897148906 342.06053052982736L1308.4795505392517 315.37197081827185 1281.790990827696 215.7689099939107 1182.187930003335 242.45746970546622z" fill="rgba(57, 181, 224, 1)" class="triangle-float3"></path><path d="M287.2786615739101 317.02584894191375L354.27161877364625 250.03289174217758 287.2786615739101 183.03993454244142 220.28570437417392 250.03289174217758z" fill="rgba(57, 181, 224, 1)" class="triangle-float1"></path><path d="M559.6427795985697 108.87618540526998L682.656654826452 139.6715415560533 653.9660837222892 32.5968724971504z" fill="rgba(57, 181, 224, 1)" class="triangle-float3"></path><path d="M-96.06 442.31 a149.42 149.42 0 1 0 298.84 0 a149.42 149.42 0 1 0 -298.84 0z" fill="rgba(57, 181, 224, 1)" class="triangle-float3"></path><path d="M897.06 494.98 a152.84 152.84 0 1 0 305.68 0 a152.84 152.84 0 1 0 -305.68 0z" fill="rgba(57, 181, 224, 1)" class="triangle-float1"></path></g><defs><mask id="SvgjsMask1018"><rect width="1440" height="560" fill="#ffffff"></rect></mask><style>
            @keyframes float1 {
                0%{transform: translate(0, 0)}
                50%{transform: translate(-10px, 0)}
                100%{transform: translate(0, 0)}
            }

            .triangle-float1 {
                animation: float1 5s infinite;
            }

            @keyframes float2 {
                0%{transform: translate(0, 0)}
                50%{transform: translate(-5px, -5px)}
                100%{transform: translate(0, 0)}
            }

            .triangle-float2 {
                animation: float2 4s infinite;
            }

            @keyframes float3 {
                0%{transform: translate(0, 0)}
                50%{transform: translate(0, -10px)}
                100%{transform: translate(0, 0)}
            }

            .triangle-float3 {
                animation: float3 6s infinite;
            }
        </style></defs></svg>